#define boxleft_width 8
#define boxleft_height 14
static unsigned char boxleft_bits[] = {
   0xfe, 0xfe, 0xfe, 0xfe, 0xfe, 0xfe, 0xfe, 0xfe, 0xfe, 0xfe, 0xfe, 0xfe,
   0xfe, 0xfe };
