#define boxleft2_width 8
#define boxleft2_height 14
static unsigned char boxleft2_bits[] = {
   0xfe, 0xfe, 0xfe, 0xfe, 0xfe, 0xfe, 0xfe, 0xfe, 0xfe, 0xfe, 0xfe, 0xfc,
   0xf8, 0xf0 };
