#define boxright_width 8
#define boxright_height 14
static unsigned char boxright_bits[] = {
   0x7f, 0x7f, 0x7f, 0x7f, 0x7f, 0x7f, 0x7f, 0x7f, 0x7f, 0x7f, 0x7f, 0x7f,
   0x7f, 0x7f };
